<svg xmlns="http://www.w3.org/2000/svg" viewBox="0 0 64 64">
  <defs>
    <linearGradient id="copper" x1="0" y1="0" x2="0" y2="1">
      <stop offset="0" stop-color="#E0A16E"/>
      <stop offset="0.55" stop-color="#C17A47"/>
      <stop offset="1" stop-color="#9A5A30"/>
    </linearGradient>
  </defs>
  <rect width="64" height="64" rx="10" fill="#171716"/>
  <!-- stencil "B": stem + two bowls with stencil breaks -->
  <g fill="url(#copper)">
    <rect x="20" y="14" width="7" height="36"/>
    <path d="M30 14h9c6 0 10 3.4 10 8.5S45 31 39 31h-9v-6h8.5c2.2 0 3.5-1 3.5-2.5S40.7 20 38.5 20H30Z"/>
    <path d="M30 33h10c6.3 0 10.5 3.5 10.5 8.5S46.3 50 40 50H30v-6h9.5c2.4 0 3.8-1 3.8-2.5S41.9 39 39.5 39H30Z"/>
  </g>
</svg>
